<?xml version="1.0" encoding="UTF-8"?>
<svg xmlns="http://www.w3.org/2000/svg" xmlns:xlink="http://www.w3.org/1999/xlink" width="715.49pt" height="255.99pt" viewBox="0 0 715.49 255.99" version="1.1">
<defs>
<clipPath id="clip1">
  <path d="M 685 18 L 715.488281 18 L 715.488281 49 L 685 49 Z M 685 18 "/>
</clipPath>
<clipPath id="clip2">
  <path d="M 553 199 L 566 199 L 566 255.988281 L 553 255.988281 Z M 553 199 "/>
</clipPath>
</defs>
<g id="surface1">
<g clip-path="url(#clip1)" clip-rule="nonzero">
<path style=" stroke:none;fill-rule:nonzero;fill:rgb(57.598877%,58.399963%,59.599304%);fill-opacity:1;" d="M 696.589844 32.671875 L 699.734375 32.671875 C 701.242188 32.671875 702.269531 32.445313 702.816406 31.992188 C 703.371094 31.542969 703.644531 30.957031 703.644531 30.222656 C 703.644531 29.75 703.507813 29.324219 703.246094 28.953125 C 702.976563 28.578125 702.617188 28.296875 702.152344 28.117188 C 701.683594 27.925781 700.8125 27.839844 699.539063 27.839844 L 696.589844 27.839844 Z M 693.992188 41.71875 L 693.992188 25.652344 L 699.515625 25.652344 C 701.398438 25.652344 702.769531 25.796875 703.617188 26.097656 C 704.464844 26.394531 705.132813 26.910156 705.644531 27.652344 C 706.144531 28.394531 706.390625 29.175781 706.390625 29.996094 C 706.390625 31.179688 705.960938 32.199219 705.132813 33.070313 C 704.289063 33.941406 703.171875 34.433594 701.789063 34.535156 C 702.359375 34.769531 702.8125 35.054688 703.160156 35.378906 C 703.800781 36.011719 704.585938 37.078125 705.53125 38.578125 L 707.484375 41.71875 L 704.289063 41.71875 L 702.871094 39.1875 C 701.75 37.203125 700.855469 35.960938 700.183594 35.453125 C 699.714844 35.078125 699.023438 34.886719 698.113281 34.886719 L 696.589844 34.886719 L 696.589844 41.71875 Z M 700.535156 20.964844 C 698.429688 20.964844 696.378906 21.511719 694.390625 22.582031 C 692.40625 23.664063 690.839844 25.207031 689.71875 27.207031 C 688.589844 29.214844 688.035156 31.296875 688.035156 33.464844 C 688.035156 35.628906 688.589844 37.6875 689.683594 39.671875 C 690.789063 41.652344 692.335938 43.1875 694.320313 44.289063 C 696.304688 45.398438 698.375 45.949219 700.535156 45.949219 C 702.691406 45.949219 704.757813 45.398438 706.746094 44.289063 C 708.722656 43.1875 710.265625 41.652344 711.363281 39.671875 C 712.460938 37.6875 713.019531 35.628906 713.019531 33.464844 C 713.019531 31.296875 712.453125 29.214844 711.339844 27.207031 C 710.230469 25.207031 708.664063 23.664063 706.664063 22.582031 C 704.660156 21.511719 702.625 20.964844 700.535156 20.964844 M 700.535156 18.496094 C 703.039063 18.496094 705.496094 19.136719 707.886719 20.429688 C 710.277344 21.71875 712.144531 23.566406 713.484375 25.964844 C 714.8125 28.367188 715.484375 30.867188 715.484375 33.464844 C 715.484375 36.046875 714.824219 38.527344 713.503906 40.90625 C 712.1875 43.28125 710.347656 45.125 707.980469 46.445313 C 705.605469 47.761719 703.117188 48.414063 700.535156 48.414063 C 697.9375 48.414063 695.464844 47.761719 693.082031 46.445313 C 690.714844 45.125 688.871094 43.28125 687.542969 40.90625 C 686.222656 38.527344 685.554688 36.046875 685.554688 33.464844 C 685.554688 30.867188 686.234375 28.367188 687.578125 25.964844 C 688.917969 23.566406 690.789063 21.71875 693.175781 20.429688 C 695.570313 19.136719 698.019531 18.496094 700.535156 18.496094 "/>
</g>
<path style=" stroke:none;fill-rule:evenodd;fill:rgb(27.099609%,40.39917%,68.998718%);fill-opacity:1;" d="M 644.683594 147.714844 C 642.191406 153.046875 638.886719 156.996094 634.84375 159.570313 C 630.699219 162.144531 626.195313 163.429688 621.234375 163.429688 L 621.140625 163.429688 C 616.179688 163.429688 611.671875 162.054688 607.53125 159.390625 C 603.390625 156.632813 600.089844 152.582031 597.695313 147.253906 C 595.304688 141.832031 594.109375 135.300781 594.109375 127.574219 C 594.109375 120.308594 595.210938 113.878906 597.503906 108.449219 C 599.714844 102.933594 602.9375 98.699219 606.980469 95.757813 C 611.117188 92.730469 615.710938 91.347656 620.953125 91.347656 L 621.234375 91.347656 C 626.109375 91.347656 630.609375 92.820313 634.75 95.675781 C 638.886719 98.523438 642.191406 102.65625 644.683594 108.085938 C 647.160156 113.507813 648.355469 120.035156 648.355469 127.574219 C 648.355469 135.664063 647.160156 142.382813 644.683594 147.714844 M 673.269531 32.042969 C 670.882813 29.28125 667.664063 27.90625 663.347656 27.90625 C 659.023438 27.90625 655.710938 29.375 653.414063 32.414063 C 651.113281 35.351563 649.914063 39.769531 649.914063 45.5625 L 649.914063 87.484375 C 644.585938 81.601563 639.066406 77.375 633.453125 74.523438 C 629.96875 72.773438 625.832031 71.488281 621.234375 70.84375 C 618.566406 70.476563 615.808594 70.289063 612.769531 70.289063 C 598.703125 70.289063 587.304688 75.261719 578.570313 85.1875 C 569.929688 95.117188 565.605469 108.90625 565.605469 126.660156 C 565.605469 135.023438 566.714844 142.839844 568.917969 150.015625 C 571.117188 157.183594 574.242188 163.429688 578.476563 168.761719 C 582.710938 174.101563 587.761719 178.144531 593.554688 181.09375 C 599.351563 183.9375 605.601563 185.410156 612.410156 185.410156 C 615.53125 185.410156 618.472656 185.132813 621.234375 184.582031 C 623.070313 184.308594 624.820313 183.84375 626.570313 183.292969 C 630.886719 181.820313 634.929688 179.707031 638.609375 177.050781 C 642.378906 174.285156 646.152344 170.703125 649.914063 166.378906 L 649.914063 169.136719 C 649.914063 174.378906 651.207031 178.332031 653.691406 181.175781 C 656.261719 183.9375 659.480469 185.410156 663.347656 185.410156 C 667.296875 185.410156 670.519531 184.03125 673 181.363281 C 675.480469 178.601563 676.773438 174.558594 676.773438 169.136719 L 676.773438 44.089844 C 676.773438 38.847656 675.570313 34.800781 673.269531 32.042969 "/>
<path style=" stroke:none;fill-rule:evenodd;fill:rgb(27.099609%,40.39917%,68.998718%);fill-opacity:1;" d="M 490.664063 96.960938 C 495.175781 92.085938 500.96875 89.691406 508.046875 89.691406 L 508.140625 89.691406 C 515.496094 89.691406 521.46875 92.085938 525.96875 96.867188 C 530.484375 101.648438 533.15625 108.90625 533.785156 118.65625 L 482.390625 118.65625 C 483.3125 109.089844 486.074219 101.832031 490.664063 96.960938 M 556.871094 148.90625 C 555.121094 147.351563 552.734375 146.515625 549.785156 146.515625 C 547.113281 146.515625 545.097656 147.164063 543.621094 148.355469 C 540.042969 151.667969 537.195313 154.328125 534.984375 156.261719 C 532.78125 158.101563 530.296875 159.9375 527.628906 161.6875 C 525.054688 163.347656 522.300781 164.628906 519.542969 165.371094 C 516.6875 166.195313 513.652344 166.5625 510.257813 166.5625 C 509.515625 166.5625 508.78125 166.5625 508.140625 166.472656 C 503.910156 166.195313 499.957031 164.996094 496.375 162.796875 C 492.140625 160.304688 488.824219 156.632813 486.253906 151.851563 C 483.773438 146.882813 482.484375 141.1875 482.390625 134.75 L 537.84375 134.75 C 545.285156 134.75 551.078125 133.644531 555.121094 131.625 C 559.261719 129.414063 561.277344 124.820313 561.277344 117.734375 C 561.277344 110.019531 559.261719 102.476563 555.3125 95.027344 C 551.347656 87.675781 545.46875 81.601563 537.46875 76.914063 C 529.5625 72.226563 520.089844 69.929688 508.964844 69.929688 L 508.140625 69.929688 C 499.957031 70.019531 492.414063 71.394531 485.703125 73.972656 C 478.71875 76.734375 472.832031 80.679688 467.953125 85.742188 C 463.265625 90.886719 459.589844 97.054688 457.105469 104.226563 C 454.621094 111.390625 453.339844 119.210938 453.339844 127.574219 C 453.339844 145.414063 458.398438 159.390625 468.507813 169.78125 C 478.074219 179.621094 491.308594 184.765625 508.140625 185.316406 C 509.058594 185.410156 510.066406 185.410156 511.078125 185.410156 C 518.988281 185.410156 526.066406 184.398438 532.226563 182.28125 C 538.386719 180.167969 543.449219 177.597656 547.492188 174.46875 C 551.535156 171.253906 554.566406 167.941406 556.589844 164.539063 C 558.613281 161.136719 559.625 158.101563 559.625 155.617188 C 559.625 152.765625 558.714844 150.472656 556.871094 148.90625 "/>
<path style=" stroke:none;fill-rule:evenodd;fill:rgb(27.099609%,40.39917%,68.998718%);fill-opacity:1;" d="M 377.109375 96.960938 C 381.621094 92.085938 387.414063 89.691406 394.484375 89.691406 L 394.585938 89.691406 C 401.933594 89.691406 407.914063 92.085938 412.414063 96.867188 C 417.023438 101.648438 419.589844 108.90625 420.328125 118.65625 L 368.835938 118.65625 C 369.84375 109.089844 372.605469 101.832031 377.109375 96.960938 M 436.324219 146.515625 C 433.574219 146.515625 431.542969 147.164063 430.074219 148.355469 C 426.582031 151.667969 423.640625 154.328125 421.429688 156.261719 C 419.230469 158.101563 416.835938 159.9375 414.171875 161.6875 C 411.5 163.347656 408.835938 164.628906 405.988281 165.371094 C 403.226563 166.195313 400.101563 166.5625 396.703125 166.5625 C 395.964844 166.5625 395.230469 166.5625 394.585938 166.472656 C 390.355469 166.195313 386.394531 164.996094 382.820313 162.796875 C 378.683594 160.304688 375.273438 156.632813 372.796875 151.851563 C 370.21875 146.882813 368.925781 141.1875 368.835938 134.75 L 424.375 134.75 C 431.730469 134.75 437.527344 133.644531 441.660156 131.625 C 445.703125 129.414063 447.726563 124.820313 447.726563 117.734375 C 447.726563 110.019531 445.796875 102.476563 441.847656 95.027344 C 437.890625 87.675781 431.914063 81.601563 424.007813 76.914063 C 416.097656 72.226563 406.542969 69.929688 395.507813 69.929688 L 394.585938 69.929688 C 386.394531 70.019531 378.953125 71.394531 372.148438 73.972656 C 365.160156 76.734375 359.277344 80.679688 354.492188 85.742188 C 349.714844 90.886719 346.03125 97.054688 343.550781 104.226563 C 341.066406 111.390625 339.777344 119.210938 339.777344 127.574219 C 339.777344 145.414063 344.933594 159.390625 355.042969 169.78125 C 364.609375 179.621094 377.753906 184.765625 394.585938 185.316406 C 395.597656 185.410156 396.515625 185.410156 397.523438 185.410156 C 405.527344 185.410156 412.511719 184.398438 418.671875 182.28125 C 424.832031 180.167969 429.894531 177.597656 433.941406 174.46875 C 438.074219 171.253906 441.015625 167.941406 443.035156 164.539063 C 445.0625 161.136719 446.070313 158.101563 446.070313 155.617188 C 446.070313 152.765625 445.152344 150.472656 443.410156 148.90625 C 441.566406 147.351563 439.183594 146.515625 436.324219 146.515625 "/>
<path style=" stroke:none;fill-rule:evenodd;fill:rgb(27.099609%,40.39917%,68.998718%);fill-opacity:1;" d="M 59.066406 166.5625 L 59.066406 98.886719 C 60.996094 99.070313 62.835938 99.167969 64.769531 99.167969 C 73.960938 99.167969 82.601563 96.679688 89.957031 92.273438 L 89.957031 166.5625 C 89.957031 172.90625 88.488281 177.597656 85.636719 180.71875 C 82.789063 183.84375 79.019531 185.410156 74.417969 185.410156 C 69.917969 185.410156 66.335938 183.84375 63.382813 180.628906 C 60.539063 177.503906 59.066406 172.816406 59.066406 166.5625 "/>
<path style=" stroke:none;fill-rule:evenodd;fill:rgb(27.099609%,40.39917%,68.998718%);fill-opacity:1;" d="M 297.667969 147.714844 C 295.1875 153.046875 291.875 156.996094 287.734375 159.570313 C 283.695313 162.144531 279.09375 163.429688 274.21875 163.429688 L 274.132813 163.429688 C 269.164063 163.429688 264.65625 162.054688 260.523438 159.390625 C 256.292969 156.632813 253.078125 152.582031 250.683594 147.253906 C 248.296875 141.832031 247.097656 135.300781 247.097656 127.574219 C 247.097656 120.308594 248.199219 113.878906 250.40625 108.449219 C 252.707031 102.933594 255.832031 98.699219 259.96875 95.757813 C 264.015625 92.730469 268.703125 91.347656 273.855469 91.347656 L 274.21875 91.347656 C 279.09375 91.347656 283.601563 92.820313 287.648438 95.675781 C 291.875 98.523438 295.1875 102.65625 297.667969 108.085938 C 300.058594 113.507813 301.347656 120.035156 301.347656 127.574219 C 301.347656 135.664063 300.058594 142.382813 297.667969 147.714844 M 326.171875 32.042969 C 323.785156 29.28125 320.476563 27.90625 316.335938 27.90625 C 312.015625 27.90625 308.695313 29.375 306.402344 32.410156 C 304.011719 35.351563 302.914063 39.769531 302.914063 45.5625 L 302.914063 87.484375 C 297.574219 81.601563 292.0625 77.375 286.453125 74.523438 C 282.867188 72.773438 278.820313 71.488281 274.21875 70.84375 C 271.558594 70.476563 268.800781 70.289063 265.761719 70.289063 C 251.695313 70.289063 240.199219 75.261719 231.558594 85.1875 C 222.921875 95.117188 218.597656 108.90625 218.597656 126.660156 C 218.597656 135.023438 219.699219 142.839844 221.808594 150.015625 C 224.019531 157.183594 227.238281 163.429688 231.46875 168.761719 C 235.699219 174.101563 240.753906 178.144531 246.546875 181.09375 C 252.339844 183.9375 258.589844 185.410156 265.398438 185.410156 C 268.429688 185.410156 271.371094 185.132813 274.21875 184.582031 C 276.058594 184.308594 277.804688 183.84375 279.550781 183.292969 C 283.878906 181.820313 287.921875 179.707031 291.601563 177.050781 C 295.367188 174.285156 299.050781 170.703125 302.914063 166.378906 L 302.914063 169.136719 C 302.914063 174.378906 304.195313 178.332031 306.679688 181.175781 C 309.160156 183.9375 312.472656 185.410156 316.335938 185.410156 C 320.105469 185.410156 323.414063 184.03125 325.894531 181.363281 C 328.378906 178.601563 329.578125 174.558594 329.578125 169.136719 L 329.578125 44.089844 C 329.578125 38.847656 328.464844 34.800781 326.171875 32.042969 "/>
<path style=" stroke:none;fill-rule:evenodd;fill:rgb(27.099609%,40.39917%,68.998718%);fill-opacity:1;" d="M 135.296875 85.738281 L 135.296875 89.230469 C 140.347656 82.613281 145.777344 77.835938 151.65625 74.710938 C 157.628906 71.671875 164.441406 70.109375 172.164063 70.109375 C 179.605469 70.109375 186.316406 71.761719 192.203125 74.984375 C 198.09375 78.203125 202.410156 82.796875 205.359375 88.773438 C 207.289063 92.277344 208.480469 96.035156 209.03125 100.082031 C 209.578125 104.035156 209.859375 109.1875 209.859375 115.4375 L 209.859375 168.128906 C 209.859375 173.824219 208.480469 178.144531 205.910156 181 C 203.328125 183.9375 199.929688 185.410156 195.789063 185.410156 C 191.5625 185.410156 188.160156 183.9375 185.496094 180.90625 C 182.828125 177.957031 181.539063 173.640625 181.539063 168.128906 L 181.539063 120.957031 C 181.539063 111.574219 180.253906 104.40625 177.679688 99.4375 C 175.101563 94.480469 169.859375 91.988281 162.140625 91.988281 C 157.085938 91.988281 152.484375 93.554688 148.34375 96.5 C 144.207031 99.53125 141.082031 103.671875 139.152344 109.003906 C 137.773438 113.226563 137.128906 121.046875 137.128906 132.726563 L 137.128906 168.128906 C 137.128906 173.914063 135.753906 178.144531 133.085938 181.09375 C 130.414063 183.9375 127.019531 185.410156 122.785156 185.410156 C 118.648438 185.410156 115.335938 183.9375 112.671875 180.90625 C 110.003906 177.957031 108.714844 173.640625 108.714844 168.128906 L 108.714844 86.199219 C 108.714844 80.773438 109.914063 76.734375 112.300781 74.15625 C 114.601563 71.488281 117.824219 70.109375 121.964844 70.109375 C 124.4375 70.109375 126.652344 70.664063 128.671875 71.855469 C 130.691406 73.050781 132.34375 74.796875 133.542969 77.191406 C 134.742188 79.578125 135.296875 82.429688 135.296875 85.738281 "/>
<path style=" stroke:none;fill-rule:evenodd;fill:rgb(27.099609%,40.39917%,68.998718%);fill-opacity:1;" d="M 59.25 4.363281 C 78.375 -2.527344 100.167969 -2.15625 116.539063 11.996094 C 119.570313 14.847656 123.0625 18.433594 124.4375 22.660156 C 126.097656 27.996094 118.648438 22.117188 117.636719 21.378906 C 112.300781 17.882813 106.964844 14.945313 100.996094 12.921875 C 68.816406 2.992188 38.378906 20.914063 19.433594 48.777344 C 11.527344 61.09375 6.382813 74.0625 2.152344 88.320313 C 1.691406 89.878906 1.320313 91.902344 0.492188 93.28125 C -0.335938 94.84375 0.132813 89.046875 0.132813 88.867188 C 0.769531 82.984375 1.96875 77.277344 3.441406 71.582031 C 12.175781 41.234375 31.480469 15.953125 59.25 4.363281 "/>
<path style=" stroke:none;fill-rule:evenodd;fill:rgb(27.099609%,40.39917%,68.998718%);fill-opacity:1;" d="M 84.164063 79.671875 C 72.671875 85.558594 58.605469 80.964844 52.816406 69.464844 C 46.925781 57.972656 51.523438 43.902344 63.019531 38.109375 C 74.515625 32.230469 88.585938 36.828125 94.375 48.320313 C 100.257813 59.808594 95.660156 73.878906 84.164063 79.671875 "/>
<path style=" stroke:none;fill-rule:nonzero;fill:rgb(0.799561%,1.199341%,1.199341%);fill-opacity:1;" d="M 160.40625 227.378906 C 160.40625 231.421875 161.292969 234.453125 163.054688 236.464844 C 164.816406 238.476563 167.039063 239.484375 169.71875 239.484375 C 172.378906 239.484375 174.585938 238.472656 176.355469 236.453125 C 178.113281 234.429688 178.992188 231.34375 178.992188 227.199219 C 178.992188 223.289063 178.109375 220.335938 176.335938 218.320313 C 174.5625 216.308594 172.355469 215.304688 169.71875 215.304688 C 167.039063 215.304688 164.816406 216.300781 163.054688 218.300781 C 161.292969 220.308594 160.40625 223.332031 160.40625 227.378906 M 154.90625 227.378906 C 154.90625 221.523438 156.53125 217.195313 159.789063 214.378906 C 162.5 212.042969 165.808594 210.871094 169.71875 210.871094 C 174.0625 210.871094 177.613281 212.296875 180.367188 215.136719 C 183.121094 217.980469 184.5 221.914063 184.5 226.933594 C 184.5 230.996094 183.894531 234.195313 182.671875 236.523438 C 181.449219 238.855469 179.675781 240.667969 177.34375 241.953125 C 175.015625 243.238281 172.476563 243.890625 169.71875 243.890625 C 165.296875 243.890625 161.722656 242.464844 158.996094 239.632813 C 156.269531 236.796875 154.90625 232.710938 154.90625 227.378906 "/>
<path style=" stroke:none;fill-rule:nonzero;fill:rgb(0.799561%,1.199341%,1.199341%);fill-opacity:1;" d="M 190.164063 243.175781 L 190.164063 211.582031 L 194.984375 211.582031 L 194.984375 216.078125 C 197.304688 212.601563 200.660156 210.871094 205.035156 210.871094 C 206.949219 210.871094 208.699219 211.214844 210.285156 211.898438 C 211.878906 212.578125 213.074219 213.480469 213.871094 214.589844 C 214.664063 215.699219 215.21875 217.019531 215.542969 218.542969 C 215.738281 219.535156 215.835938 221.269531 215.835938 223.746094 L 215.835938 243.175781 L 210.480469 243.175781 L 210.480469 223.960938 C 210.480469 221.777344 210.273438 220.144531 209.859375 219.0625 C 209.445313 217.980469 208.707031 217.125 207.640625 216.476563 C 206.582031 215.828125 205.335938 215.507813 203.910156 215.507813 C 201.628906 215.507813 199.660156 216.234375 198.007813 217.683594 C 196.351563 219.128906 195.519531 221.871094 195.519531 225.921875 L 195.519531 243.175781 L 190.164063 243.175781 "/>
<path style=" stroke:none;fill-rule:nonzero;fill:rgb(0.799561%,1.199341%,1.199341%);fill-opacity:1;" d="M 227.480469 224.347656 L 245.117188 224.347656 C 244.875 221.683594 244.203125 219.699219 243.09375 218.367188 C 241.398438 216.300781 239.179688 215.269531 236.46875 215.269531 C 234.003906 215.269531 231.933594 216.09375 230.261719 217.746094 C 228.585938 219.390625 227.660156 221.585938 227.480469 224.347656 M 245.058594 232.996094 L 250.59375 233.679688 C 249.722656 236.917969 248.101563 239.429688 245.746094 241.207031 C 243.386719 242.996094 240.367188 243.886719 236.703125 243.886719 C 232.085938 243.886719 228.417969 242.464844 225.714844 239.617188 C 223.003906 236.773438 221.648438 232.78125 221.648438 227.644531 C 221.648438 222.332031 223.019531 218.207031 225.753906 215.269531 C 228.492188 212.335938 232.039063 210.871094 236.40625 210.871094 C 240.625 210.871094 244.082031 212.308594 246.757813 215.179688 C 249.433594 218.058594 250.773438 222.105469 250.773438 227.320313 C 250.773438 227.636719 250.757813 228.109375 250.742188 228.746094 L 227.183594 228.746094 C 227.382813 232.214844 228.367188 234.871094 230.132813 236.714844 C 231.890625 238.5625 234.09375 239.484375 236.730469 239.484375 C 238.691406 239.484375 240.367188 238.964844 241.757813 237.941406 C 243.148438 236.90625 244.246094 235.257813 245.058594 232.996094 "/>
<path style=" stroke:none;fill-rule:nonzero;fill:rgb(0.799561%,1.199341%,1.199341%);fill-opacity:1;" d="M 270.882813 233.738281 L 276.175781 232.90625 C 276.476563 235.03125 277.296875 236.660156 278.65625 237.785156 C 280.007813 238.921875 281.910156 239.484375 284.347656 239.484375 C 286.816406 239.484375 288.632813 238.984375 289.824219 237.980469 C 291.015625 236.980469 291.609375 235.804688 291.609375 234.453125 C 291.609375 233.246094 291.085938 232.296875 290.03125 231.601563 C 289.300781 231.121094 287.476563 230.523438 284.5625 229.789063 C 280.640625 228.796875 277.90625 227.9375 276.398438 227.214844 C 274.878906 226.492188 273.730469 225.492188 272.949219 224.207031 C 272.164063 222.933594 271.769531 221.519531 271.769531 219.96875 C 271.769531 218.566406 272.089844 217.257813 272.738281 216.058594 C 273.382813 214.863281 274.257813 213.863281 275.367188 213.070313 C 276.199219 212.457031 277.335938 211.9375 278.777344 211.507813 C 280.214844 211.085938 281.753906 210.871094 283.394531 210.871094 C 285.878906 210.871094 288.058594 211.226563 289.925781 211.941406 C 291.804688 212.652344 293.183594 213.621094 294.078125 214.84375 C 294.972656 216.058594 295.585938 217.691406 295.921875 219.730469 L 290.6875 220.445313 C 290.449219 218.824219 289.761719 217.554688 288.621094 216.640625 C 287.480469 215.730469 285.871094 215.269531 283.789063 215.269531 C 281.328125 215.269531 279.574219 215.679688 278.523438 216.496094 C 277.472656 217.304688 276.941406 218.261719 276.941406 219.347656 C 276.941406 220.042969 277.160156 220.667969 277.597656 221.21875 C 278.039063 221.796875 278.722656 222.273438 279.648438 222.644531 C 280.1875 222.847656 281.765625 223.304688 284.382813 224.015625 C 288.167969 225.027344 290.816406 225.863281 292.3125 226.507813 C 293.808594 227.144531 294.980469 228.082031 295.835938 229.308594 C 296.6875 230.546875 297.109375 232.0625 297.109375 233.894531 C 297.109375 235.675781 296.589844 237.359375 295.554688 238.933594 C 294.511719 240.511719 293.007813 241.726563 291.046875 242.59375 C 289.082031 243.457031 286.859375 243.886719 284.382813 243.886719 C 280.28125 243.886719 277.152344 243.03125 274.996094 241.324219 C 272.847656 239.621094 271.472656 237.09375 270.882813 233.738281 "/>
<path style=" stroke:none;fill-rule:nonzero;fill:rgb(0.799561%,1.199341%,1.199341%);fill-opacity:1;" d="M 306.914063 224.347656 L 324.554688 224.347656 C 324.316406 221.683594 323.640625 219.699219 322.527344 218.367188 C 320.824219 216.300781 318.613281 215.269531 315.890625 215.269531 C 313.433594 215.269531 311.371094 216.09375 309.691406 217.746094 C 308.023438 219.390625 307.09375 221.585938 306.914063 224.347656 M 324.492188 232.996094 L 330.027344 233.679688 C 329.152344 236.917969 327.535156 239.429688 325.175781 241.207031 C 322.816406 242.996094 319.804688 243.886719 316.132813 243.886719 C 311.515625 243.886719 307.847656 242.464844 305.148438 239.617188 C 302.4375 236.773438 301.082031 232.78125 301.082031 227.644531 C 301.082031 222.332031 302.453125 218.207031 305.1875 215.269531 C 307.925781 212.335938 311.472656 210.871094 315.835938 210.871094 C 320.0625 210.871094 323.511719 212.308594 326.1875 215.179688 C 328.867188 218.058594 330.199219 222.105469 330.199219 227.320313 C 330.199219 227.636719 330.191406 228.109375 330.179688 228.746094 L 306.621094 228.746094 C 306.808594 232.214844 307.796875 234.871094 309.5625 236.714844 C 311.324219 238.5625 313.527344 239.484375 316.167969 239.484375 C 318.125 239.484375 319.804688 238.964844 321.191406 237.941406 C 322.582031 236.90625 323.675781 235.257813 324.492188 232.996094 "/>
<path style=" stroke:none;fill-rule:nonzero;fill:rgb(0.799561%,1.199341%,1.199341%);fill-opacity:1;" d="M 356.304688 227.320313 C 354.355469 228.109375 351.445313 228.789063 347.558594 229.339844 C 345.355469 229.660156 343.804688 230.011719 342.886719 230.410156 C 341.976563 230.8125 341.269531 231.386719 340.777344 232.152344 C 340.28125 232.917969 340.03125 233.765625 340.03125 234.6875 C 340.03125 236.121094 340.574219 237.316406 341.652344 238.261719 C 342.738281 239.214844 344.316406 239.691406 346.402344 239.691406 C 348.460938 239.691406 350.296875 239.238281 351.902344 238.335938 C 353.503906 237.433594 354.6875 236.203125 355.445313 234.632813 C 356.015625 233.429688 356.304688 231.640625 356.304688 229.28125 Z M 356.75 239.28125 C 354.765625 240.960938 352.859375 242.152344 351.023438 242.851563 C 349.191406 243.539063 347.222656 243.886719 345.121094 243.886719 C 341.652344 243.886719 338.984375 243.039063 337.117188 241.339844 C 335.253906 239.644531 334.320313 237.476563 334.320313 234.847656 C 334.320313 233.300781 334.671875 231.882813 335.382813 230.605469 C 336.082031 229.328125 337.011719 228.308594 338.144531 227.527344 C 339.28125 226.75 340.570313 226.167969 341.992188 225.773438 C 343.042969 225.492188 344.636719 225.226563 346.753906 224.96875 C 351.078125 224.457031 354.261719 223.839844 356.304688 223.125 C 356.324219 222.390625 356.332031 221.921875 356.332031 221.730469 C 356.332031 219.546875 355.828125 218.007813 354.8125 217.113281 C 353.449219 215.90625 351.414063 215.304688 348.71875 215.304688 C 346.199219 215.304688 344.339844 215.746094 343.140625 216.621094 C 341.941406 217.507813 341.054688 219.066406 340.480469 221.3125 L 335.246094 220.597656 C 335.722656 218.355469 336.503906 216.550781 337.59375 215.171875 C 338.683594 213.792969 340.261719 212.730469 342.328125 211.988281 C 344.382813 211.246094 346.773438 210.871094 349.496094 210.871094 C 352.191406 210.871094 354.382813 211.1875 356.058594 211.824219 C 357.753906 212.457031 358.992188 213.261719 359.78125 214.214844 C 360.578125 215.179688 361.136719 216.394531 361.445313 217.863281 C 361.628906 218.773438 361.71875 220.421875 361.71875 222.796875 L 361.71875 229.9375 C 361.71875 234.914063 361.832031 238.058594 362.0625 239.382813 C 362.285156 240.695313 362.738281 241.964844 363.410156 243.175781 L 357.820313 243.175781 C 357.261719 242.0625 356.910156 240.765625 356.75 239.28125 "/>
<path style=" stroke:none;fill-rule:nonzero;fill:rgb(0.799561%,1.199341%,1.199341%);fill-opacity:1;" d="M 369.34375 243.175781 L 369.34375 211.582031 L 374.171875 211.582031 L 374.171875 216.382813 C 375.394531 214.132813 376.53125 212.652344 377.574219 211.9375 C 378.613281 211.226563 379.761719 210.871094 381.007813 210.871094 C 382.8125 210.871094 384.648438 211.445313 386.515625 212.59375 L 384.675781 217.5625 C 383.351563 216.792969 382.046875 216.398438 380.746094 216.398438 C 379.574219 216.398438 378.519531 216.757813 377.589844 217.457031 C 376.660156 218.15625 375.996094 219.140625 375.601563 220.390625 C 375.003906 222.285156 374.707031 224.371094 374.707031 226.632813 L 374.707031 243.175781 L 369.34375 243.175781 "/>
<path style=" stroke:none;fill-rule:nonzero;fill:rgb(0.799561%,1.199341%,1.199341%);fill-opacity:1;" d="M 409.699219 231.601563 L 414.957031 232.289063 C 414.390625 235.917969 412.921875 238.753906 410.550781 240.808594 C 408.183594 242.855469 405.265625 243.886719 401.816406 243.886719 C 397.488281 243.886719 394.019531 242.472656 391.390625 239.644531 C 388.769531 236.824219 387.449219 232.769531 387.449219 227.503906 C 387.449219 224.09375 388.007813 221.097656 389.144531 218.542969 C 390.273438 215.984375 391.996094 214.066406 394.304688 212.796875 C 396.617188 211.507813 399.128906 210.871094 401.84375 210.871094 C 405.273438 210.871094 408.089844 211.734375 410.257813 213.472656 C 412.445313 215.210938 413.84375 217.671875 414.453125 220.863281 L 409.25 221.667969 C 408.757813 219.546875 407.882813 217.949219 406.613281 216.878906 C 405.355469 215.808594 403.839844 215.269531 402.054688 215.269531 C 399.355469 215.269531 397.167969 216.238281 395.480469 218.175781 C 393.792969 220.105469 392.953125 223.167969 392.953125 227.351563 C 392.953125 231.59375 393.765625 234.675781 395.394531 236.597656 C 397.019531 238.527344 399.136719 239.484375 401.753906 239.484375 C 403.855469 239.484375 405.613281 238.839844 407.023438 237.546875 C 408.429688 236.265625 409.316406 234.277344 409.699219 231.601563 "/>
<path style=" stroke:none;fill-rule:nonzero;fill:rgb(0.799561%,1.199341%,1.199341%);fill-opacity:1;" d="M 418.9375 243.175781 L 418.9375 199.566406 L 424.285156 199.566406 L 424.285156 215.214844 C 426.777344 212.316406 429.933594 210.871094 433.75 210.871094 C 436.089844 210.871094 438.121094 211.328125 439.839844 212.253906 C 441.566406 213.171875 442.800781 214.449219 443.546875 216.078125 C 444.289063 217.699219 444.65625 220.066406 444.65625 223.15625 L 444.65625 243.175781 L 439.308594 243.175781 L 439.308594 223.15625 C 439.308594 220.476563 438.726563 218.53125 437.5625 217.308594 C 436.410156 216.089844 434.769531 215.480469 432.648438 215.480469 C 431.058594 215.480469 429.570313 215.890625 428.167969 216.71875 C 426.769531 217.539063 425.773438 218.652344 425.179688 220.066406 C 424.582031 221.46875 424.285156 223.410156 424.285156 225.894531 L 424.285156 243.175781 L 418.9375 243.175781 "/>
<path style=" stroke:none;fill-rule:nonzero;fill:rgb(0.799561%,1.199341%,1.199341%);fill-opacity:1;" d="M 453.71875 237.066406 L 459.816406 237.066406 L 459.816406 243.171875 L 453.71875 243.171875 L 453.71875 237.066406 "/>
<path style=" stroke:none;fill-rule:nonzero;fill:rgb(0.799561%,1.199341%,1.199341%);fill-opacity:1;" d="M 505 227.320313 C 503.0625 228.109375 500.136719 228.789063 496.253906 229.339844 C 494.054688 229.660156 492.5 230.011719 491.585938 230.410156 C 490.675781 230.8125 489.96875 231.386719 489.476563 232.152344 C 488.972656 232.917969 488.726563 233.765625 488.726563 234.6875 C 488.726563 236.121094 489.269531 237.316406 490.347656 238.261719 C 491.429688 239.214844 493.007813 239.691406 495.089844 239.691406 C 497.15625 239.691406 498.988281 239.238281 500.59375 238.335938 C 502.203125 237.433594 503.382813 236.203125 504.136719 234.632813 C 504.714844 233.429688 505 231.640625 505 229.28125 Z M 505.445313 239.28125 C 503.460938 240.960938 501.550781 242.152344 499.722656 242.851563 C 497.886719 243.539063 495.917969 243.886719 493.816406 243.886719 C 490.339844 243.886719 487.683594 243.039063 485.8125 241.339844 C 483.953125 239.644531 483.019531 237.476563 483.019531 234.847656 C 483.019531 233.300781 483.375 231.882813 484.070313 230.605469 C 484.773438 229.328125 485.703125 228.308594 486.84375 227.527344 C 487.980469 226.75 489.265625 226.167969 490.691406 225.773438 C 491.742188 225.492188 493.335938 225.226563 495.453125 224.96875 C 499.773438 224.457031 502.957031 223.839844 505 223.125 C 505.019531 222.390625 505.027344 221.921875 505.027344 221.730469 C 505.027344 219.546875 504.519531 218.007813 503.511719 217.113281 C 502.140625 215.90625 500.113281 215.304688 497.421875 215.304688 C 494.894531 215.304688 493.035156 215.746094 491.839844 216.621094 C 490.640625 217.507813 489.746094 219.066406 489.175781 221.3125 L 483.933594 220.597656 C 484.417969 218.355469 485.203125 216.550781 486.289063 215.171875 C 487.386719 213.792969 488.957031 212.730469 491.019531 211.988281 C 493.089844 211.246094 495.472656 210.871094 498.1875 210.871094 C 500.882813 210.871094 503.074219 211.1875 504.757813 211.824219 C 506.449219 212.457031 507.6875 213.261719 508.476563 214.214844 C 509.269531 215.179688 509.828125 216.394531 510.144531 217.863281 C 510.324219 218.773438 510.410156 220.421875 510.410156 222.796875 L 510.410156 229.9375 C 510.410156 234.914063 510.523438 238.058594 510.753906 239.382813 C 510.984375 240.695313 511.4375 241.964844 512.109375 243.175781 L 506.519531 243.175781 C 505.964844 242.0625 505.601563 240.765625 505.445313 239.28125 "/>
<path style=" stroke:none;fill-rule:nonzero;fill:rgb(0.799561%,1.199341%,1.199341%);fill-opacity:1;" d="M 517.984375 199.566406 L 523.335938 199.566406 L 523.335938 243.175781 L 517.984375 243.175781 L 517.984375 199.566406 "/>
<path style=" stroke:none;fill-rule:nonzero;fill:rgb(0.799561%,1.199341%,1.199341%);fill-opacity:1;" d="M 530.90625 199.566406 L 536.261719 199.566406 L 536.261719 243.175781 L 530.90625 243.175781 L 530.90625 199.566406 "/>
<g clip-path="url(#clip2)" clip-rule="nonzero">
<path style=" stroke:none;fill-rule:nonzero;fill:rgb(0.799561%,1.199341%,1.199341%);fill-opacity:1;" d="M 560.234375 199.566406 L 565.589844 199.566406 L 565.589844 205.785156 L 560.234375 205.785156 Z M 553.453125 255.429688 L 554.46875 250.878906 C 555.539063 251.152344 556.378906 251.289063 556.988281 251.289063 C 558.085938 251.289063 558.90625 250.925781 559.429688 250.207031 C 559.972656 249.484375 560.234375 247.671875 560.234375 244.777344 L 560.234375 211.582031 L 565.589844 211.582031 L 565.589844 244.894531 C 565.589844 248.785156 565.089844 251.488281 564.074219 253.019531 C 562.78125 254.996094 560.644531 255.988281 557.644531 255.988281 C 556.195313 255.988281 554.804688 255.804688 553.453125 255.429688 "/>
</g>
<path style=" stroke:none;fill-rule:nonzero;fill:rgb(0.799561%,1.199341%,1.199341%);fill-opacity:1;" d="M 576.695313 227.378906 C 576.695313 231.421875 577.585938 234.453125 579.339844 236.464844 C 581.109375 238.476563 583.332031 239.484375 586.011719 239.484375 C 588.660156 239.484375 590.878906 238.472656 592.640625 236.453125 C 594.398438 234.429688 595.289063 231.34375 595.289063 227.199219 C 595.289063 223.289063 594.398438 220.335938 592.628906 218.320313 C 590.855469 216.308594 588.644531 215.304688 586.011719 215.304688 C 583.332031 215.304688 581.109375 216.300781 579.339844 218.300781 C 577.585938 220.308594 576.695313 223.332031 576.695313 227.378906 M 571.195313 227.378906 C 571.195313 221.523438 572.828125 217.195313 576.074219 214.378906 C 578.789063 212.042969 582.101563 210.871094 586.011719 210.871094 C 590.355469 210.871094 593.902344 212.296875 596.65625 215.136719 C 599.417969 217.980469 600.792969 221.914063 600.792969 226.933594 C 600.792969 230.996094 600.183594 234.195313 598.960938 236.523438 C 597.746094 238.855469 595.96875 240.667969 593.644531 241.953125 C 591.304688 243.238281 588.765625 243.890625 586.011719 243.890625 C 581.582031 243.890625 578.007813 242.464844 575.289063 239.632813 C 572.5625 236.796875 571.195313 232.710938 571.195313 227.378906 "/>
<path style=" stroke:none;fill-rule:nonzero;fill:rgb(0.799561%,1.199341%,1.199341%);fill-opacity:1;" d="M 611.335938 227.140625 C 611.335938 230.929688 611.84375 233.667969 612.882813 235.34375 C 614.566406 238.105469 616.851563 239.484375 619.722656 239.484375 C 622.058594 239.484375 624.089844 238.46875 625.789063 236.433594 C 627.496094 234.402344 628.347656 231.378906 628.347656 227.351563 C 628.347656 223.222656 627.53125 220.179688 625.898438 218.21875 C 624.261719 216.253906 622.277344 215.269531 619.960938 215.269531 C 617.625 215.269531 615.601563 216.285156 613.894531 218.320313 C 612.1875 220.355469 611.335938 223.289063 611.335938 227.140625 M 611.394531 243.175781 L 606.429688 243.175781 L 606.429688 199.566406 L 611.78125 199.566406 L 611.78125 215.125 C 614.035156 212.292969 616.929688 210.871094 620.4375 210.871094 C 622.386719 210.871094 624.214844 211.261719 625.957031 212.042969 C 627.691406 212.828125 629.113281 213.933594 630.238281 215.351563 C 631.359375 216.765625 632.234375 218.476563 632.875 220.476563 C 633.503906 222.492188 633.824219 224.617188 633.824219 226.898438 C 633.824219 232.316406 632.480469 236.5 629.804688 239.453125 C 627.128906 242.410156 623.917969 243.886719 620.175781 243.886719 C 616.445313 243.886719 613.523438 242.335938 611.394531 239.214844 L 611.394531 243.175781 "/>
<path style=" stroke:none;fill-rule:nonzero;fill:rgb(0.799561%,1.199341%,1.199341%);fill-opacity:1;" d="M 637.585938 233.738281 L 642.882813 232.90625 C 643.179688 235.03125 644.003906 236.660156 645.363281 237.785156 C 646.71875 238.921875 648.625 239.484375 651.0625 239.484375 C 653.515625 239.484375 655.347656 238.984375 656.535156 237.980469 C 657.726563 236.980469 658.320313 235.804688 658.320313 234.453125 C 658.320313 233.246094 657.792969 232.296875 656.738281 231.601563 C 656.007813 231.121094 654.183594 230.523438 651.269531 229.789063 C 647.34375 228.796875 644.621094 227.9375 643.105469 227.214844 C 641.585938 226.492188 640.433594 225.492188 639.65625 224.207031 C 638.871094 222.933594 638.476563 221.519531 638.476563 219.96875 C 638.476563 218.566406 638.804688 217.257813 639.4375 216.058594 C 640.085938 214.863281 640.96875 213.863281 642.074219 213.070313 C 642.910156 212.457031 644.046875 211.9375 645.480469 211.507813 C 646.914063 211.085938 648.464844 210.871094 650.105469 210.871094 C 652.585938 210.871094 654.757813 211.226563 656.636719 211.941406 C 658.511719 212.652344 659.890625 213.621094 660.777344 214.84375 C 661.675781 216.058594 662.292969 217.691406 662.632813 219.730469 L 657.390625 220.445313 C 657.152344 218.824219 656.464844 217.554688 655.332031 216.640625 C 654.191406 215.730469 652.578125 215.269531 650.496094 215.269531 C 648.027344 215.269531 646.277344 215.679688 645.234375 216.496094 C 644.179688 217.304688 643.652344 218.261719 643.652344 219.347656 C 643.652344 220.042969 643.867188 220.667969 644.3125 221.21875 C 644.746094 221.796875 645.433594 222.273438 646.355469 222.644531 C 646.898438 222.847656 648.472656 223.304688 651.089844 224.015625 C 654.882813 225.027344 657.515625 225.863281 659.015625 226.507813 C 660.507813 227.144531 661.691406 228.082031 662.542969 229.308594 C 663.390625 230.546875 663.824219 232.0625 663.824219 233.894531 C 663.824219 235.675781 663.296875 237.359375 662.257813 238.933594 C 661.214844 240.511719 659.710938 241.726563 657.746094 242.59375 C 655.789063 243.457031 653.566406 243.886719 651.089844 243.886719 C 646.984375 243.886719 643.859375 243.03125 641.710938 241.324219 C 639.550781 239.621094 638.183594 237.09375 637.585938 233.738281 "/>
<path style=" stroke:none;fill-rule:nonzero;fill:rgb(0.799561%,1.199341%,1.199341%);fill-opacity:1;" d="M 671.097656 237.066406 L 677.1875 237.066406 L 677.1875 243.171875 L 671.097656 243.171875 L 671.097656 237.066406 "/>
</g>
</svg>
